<svg width="21" height="20" viewBox="0 0 21 20" fill="none" xmlns="http://www.w3.org/2000/svg">
<path d="M20.0845 4.54545H18.4628V3.63636C18.4628 1.62818 16.5272 0 14.1385 0C13.1374 0 12.2191 0.288636 11.4861 0.768182L11.4915 0.774091C11.3947 0.856364 11.3347 0.969091 11.3347 1.09364C11.3347 1.345 11.5769 1.54818 11.8753 1.54818C11.9753 1.54818 12.0639 1.51955 12.1439 1.47955L12.1558 1.49227C12.7055 1.13227 13.3877 0.909091 14.1385 0.909091C15.9293 0.909091 17.3818 2.13045 17.3818 3.63636V4.54545H11.4358V3.63636C11.4358 1.62818 9.50013 0 7.11149 0C4.72284 0 2.78716 1.62818 2.78716 3.63636V4.54545H1.16554C0.867162 4.54545 0.625 4.74864 0.625 5V19.5455C0.625 19.7968 0.867162 20 1.16554 20H20.0845C20.3828 20 20.625 19.7968 20.625 19.5455V5C20.625 4.74864 20.3828 4.54545 20.0845 4.54545ZM3.86824 3.63636C3.86824 2.13045 5.32013 0.909091 7.11149 0.909091C8.9023 0.909091 10.3547 2.13045 10.3547 3.63636V4.54545H3.86824V3.63636ZM13.0574 19.0909H1.70608V5.45455H2.78716V6.81818C2.78716 7.06955 3.02932 7.27273 3.3277 7.27273C3.62608 7.27273 3.86824 7.06955 3.86824 6.81818V5.45455H10.3547V6.81818C10.3547 7.06955 10.5969 7.27273 10.8953 7.27273C11.1936 7.27273 11.4358 7.06955 11.4358 6.81818V5.45455H13.0574V19.0909ZM14.1385 5.45455H16.3007V16.6041L14.1385 18.415V5.45455ZM14.9358 19.0909L16.8488 17.4891L18.7536 19.0909H14.9358ZM19.5439 18.4118L17.3818 16.5936V5.45455H19.5439V18.4118Z" fill="white"/>
</svg>
