<svg width="53" height="48" viewBox="0 0 53 48" fill="none" xmlns="http://www.w3.org/2000/svg">
<path id="Ml" d="M6.11688 37.376V11.072H3.23688C2.91688 11.072 2.64488 10.976 2.42088 10.784C2.22888 10.56 2.13288 10.288 2.13288 9.968C2.13288 9.648 2.22888 9.376 2.42088 9.152C2.64488 8.928 2.91688 8.816 3.23688 8.816H7.22088C7.73288 8.816 8.14888 9.008 8.46888 9.392L20.5169 25.856L32.5169 9.44C32.8049 9.024 33.2049 8.816 33.7169 8.816H37.7969C38.1169 8.816 38.3729 8.928 38.5649 9.152C38.7889 9.376 38.9009 9.648 38.9009 9.968C38.9009 10.288 38.7889 10.56 38.5649 10.784C38.3729 10.976 38.1169 11.072 37.7969 11.072H34.9169V35.024C34.9169 35.504 35.2849 35.744 36.0209 35.744H37.7969C38.1169 35.744 38.3729 35.856 38.5649 36.08C38.7889 36.304 38.9009 36.576 38.9009 36.896C38.9009 37.216 38.7889 37.488 38.5649 37.712C38.3729 37.904 38.1169 38 37.7969 38H36.0209C33.5569 38 32.3249 37.008 32.3249 35.024V13.856L21.5729 28.544C21.3169 28.896 20.9649 29.072 20.5169 29.072C20.0689 29.072 19.7169 28.896 19.4609 28.544L8.70888 13.856V37.376C8.70888 37.696 8.58088 37.952 8.32488 38.144C8.06888 38.368 7.76488 38.48 7.41288 38.48C7.06088 38.48 6.75688 38.368 6.50088 38.144C6.24488 37.952 6.11688 37.696 6.11688 37.376ZM47.6586 35.744H49.5306C49.8506 35.744 50.1066 35.856 50.2986 36.08C50.5226 36.304 50.6346 36.576 50.6346 36.896C50.6346 37.216 50.5226 37.488 50.2986 37.712C50.1066 37.904 49.8506 38 49.5306 38H47.6586C45.0666 38 43.7706 36.96 43.7706 34.88V4.256H40.6026C40.2826 4.256 40.0266 4.16 39.8346 3.968C39.6106 3.744 39.4986 3.472 39.4986 3.152C39.4986 2.832 39.6106 2.56 39.8346 2.336C40.0266 2.112 40.2826 2 40.6026 2H45.0666C45.4186 2 45.7226 2.112 45.9786 2.336C46.2346 2.56 46.3626 2.832 46.3626 3.152V34.832C46.3626 35.44 46.7946 35.744 47.6586 35.744Z" fill="white"/>
</svg>
