<svg width="23" height="37" viewBox="0 0 23 37" fill="none" xmlns="http://www.w3.org/2000/svg">
<path d="M0.437442 18.1131C0.439786 19.0843 0.820937 19.9965 1.5087 20.6817L15.8148 34.9173C17.2356 36.3312 19.5425 36.3257 20.9564 34.9049C21.6416 34.2164 22.0176 33.3024 22.0153 32.3303C22.0129 31.3581 21.6325 30.446 20.944 29.7617L9.21614 18.0919L20.8876 6.36476C21.5728 5.67624 21.9488 4.76303 21.9464 3.79101C21.9441 2.819 21.5637 1.90761 20.8751 1.22241C20.1866 0.536453 19.2727 0.161218 18.3014 0.163562C17.3301 0.165906 16.418 0.546301 15.7328 1.23482L1.49868 15.5386C0.811091 16.2278 0.435101 17.1427 0.437442 18.1131ZM20.3991 32.3343C20.4004 32.8741 20.1916 33.382 19.8112 33.7651C19.0252 34.5549 17.7437 34.558 16.9547 33.772L2.64933 19.5364C1.89112 18.7818 1.87827 17.4721 2.61911 16.705L16.8788 2.37633C17.2601 1.99319 17.7663 1.78275 18.3061 1.78145C18.8458 1.78014 19.353 1.98902 19.7362 2.36943C20.5008 3.13115 20.504 4.46049 19.7431 5.22589L6.931 18.0974L19.8041 30.9071C20.1865 31.2884 20.3978 31.7945 20.3991 32.3343Z" fill="white"/>
</svg>
