<svg width="23" height="37" viewBox="0 0 23 37" fill="none" xmlns="http://www.w3.org/2000/svg">
<path d="M21.9809 18.1131C21.9785 19.0843 21.5974 19.9965 20.9096 20.6817L6.6035 34.9173C5.18273 36.3312 2.87584 36.3257 1.46191 34.9049C0.776705 34.2164 0.400713 33.3024 0.403059 32.3303C0.405405 31.3581 0.785803 30.446 1.47432 29.7617L13.2022 18.0919L1.53078 6.36476C0.845573 5.67624 0.46958 4.76303 0.471925 3.79101C0.474271 2.819 0.854667 1.90761 1.54319 1.22241C2.23171 0.536453 3.14567 0.161218 4.11693 0.163562C5.08819 0.165906 6.00033 0.546301 6.68553 1.23482L20.9197 15.5386C21.6072 16.2278 21.9832 17.1427 21.9809 18.1131ZM2.01919 32.3343C2.01789 32.8741 2.22675 33.382 2.60717 33.7651C3.39309 34.5549 4.67465 34.558 5.46362 33.772L19.769 19.5364C20.5272 18.7818 20.5401 17.4721 19.7992 16.705L5.53951 2.37633C5.15821 1.99319 4.65203 1.78275 4.11227 1.78145C3.57251 1.78014 3.06531 1.98902 2.68218 2.36943C1.91753 3.13115 1.91432 4.46049 2.67528 5.22589L15.4873 18.0974L2.61419 30.9071C2.23181 31.2884 2.02049 31.7945 2.01919 32.3343Z" fill="white"/>
</svg>
